<svg xmlns="http://www.w3.org/2000/svg" xmlns:xlink="http://www.w3.org/1999/xlink" viewBox="0 0 48 48"><symbol id="e" viewBox="0 -48 48 48" fill="#0071B3"><path fill="none" d="M0 0v-48h48V0z"></path></symbol><symbol id="f" viewBox="-0.0002 -48 48.0002 48.0002" fill="#0071B3"><defs fill="#0071B3"><path id="a" d="M48-48H0V0h48z" fill="#0071B3"></path></defs><clipPath id="b" fill="#0071B3"><use xlink:href="#a" overflow="visible" fill="#0071B3"></use></clipPath><g clip-path="url(#b)" fill="#0071B3"><g fill="none" stroke="#0071B3" stroke-width=".25" stroke-miterlimit="10"><path d="M2-48V0M4-48V0M6-48V0M8-48V0M10-48V0M12-48V0M14-48V0M16-48V0M18-48V0M20-48V0M22-48V0M24-48V0M26-48V0M28-48V0M30-48V0M32-48V0M34-48V0M36-48V0M38-48V0M40-48V0M42-48V0M44-48V0M46-48V0" fill="#0071B3"></path></g><g fill="none" stroke="#0071B3" stroke-width=".25" stroke-miterlimit="10"><path d="M0-2h48M0-4h48M0-6h48M0-8h48M0-10h48M0-12h48M0-14h48M0-16h48M0-18h48M0-20h48M0-22h48M0-24h48M0-26h48M0-28h48M0-30h48M0-32h48M0-34h48M0-36h48M0-38h48M0-40h48M0-42h48M0-44h48M0-46h48" fill="#0071B3"></path></g><path d="M47.75-.25v-47.5H.25v47.5h47.5M48 0H0v-48h48V0z" fill="#0071B3"></path></g></symbol><symbol id="g" viewBox="-0.0002 -48.0001 48.0002 48.0001" fill="#0071B3"><g opacity=".4" fill="#0071B3"><defs fill="#0071B3"><path id="c" opacity=".4" d="M0-48V0h48v-48z" fill="#0071B3"></path></defs><clipPath id="d" fill="#0071B3"><use xlink:href="#c" overflow="visible" fill="#0071B3"></use></clipPath><path clip-path="url(#d)" fill="none" stroke="#0071B3" stroke-width=".25" stroke-miterlimit="10" d="M24 0v-48M48-24H0M48-16H0M48-32H0M32-48V0M16-48V0M47.75-.25L.25-47.75M.25-.25l47.5-47.5M24-14c-5.522 0-10-4.477-10-10 0-5.522 4.478-10 10-10 5.523 0 10 4.478 10 10 0 5.523-4.477 10-10 10z"></path><path d="M24-4C12.946-4 4-12.947 4-24s8.946-20 20-20c11.053 0 20 8.947 20 20S35.052-4 24-4z" clip-path="url(#d)" fill="none" stroke="#0071B3" stroke-width=".25" stroke-miterlimit="10"></path><path d="M40-42H8c-1.1 0-2 .9-2 2v32c0 1.1.9 2 2 2h32c1.1 0 2-.9 2-2v-32c0-1.1-.9-2-2-2z" clip-path="url(#d)" fill="none" stroke="#0071B3" stroke-width=".25" stroke-miterlimit="10"></path><path d="M38-44H10c-1.1 0-2 .9-2 2v36c0 1.1.9 2 2 2h28c1.1 0 2-.9 2-2v-36c0-1.1-.9-2-2-2z" clip-path="url(#d)" fill="none" stroke="#0071B3" stroke-width=".25" stroke-miterlimit="10"></path><g clip-path="url(#d)" fill="#0071B3"><path d="M47.75-.25v-47.5H.25v47.5h47.5M48 0H0v-48h48V0z" fill="#0071B3"></path></g><path d="M42-40H6c-1.1 0-2 .9-2 2v28c0 1.1.9 2 2 2h36c1.1 0 2-.9 2-2v-28c0-1.1-.9-2-2-2z" clip-path="url(#d)" fill="none" stroke="#0071B3" stroke-width=".25" stroke-miterlimit="10"></path></g></symbol><path d="M31.562 22.934c-.01-.01-.024-.014-.035-.024l-10.57-10.57c-.585-.584-1.54-.584-2.123 0-.583.582-.583 1.537 0 2.12l9.54 9.54-9.54 9.54c-.583.584-.583 1.538 0 2.12.584.585 1.538.585 2.122.002l10.57-10.572c.012-.01.026-.013.036-.023.293-.293.438-.68.437-1.067 0-.386-.145-.773-.438-1.066z" fill="#0071B3"></path></svg>